# xmcd CD database file
#
# Track frame offsets:
#	150
#	4129
#	19602
#	32800
#	54910
#	80812
#	94907
#	107841
#	119535
#	138565
#	149185
#	158966
#	175733
#	186443
#	205541
#
# Disc length: 3009 seconds
#
# Revision: 0
# Processed by: cddbd v1.5.1PL2 Copyright (c) Steve Scherf et al.
# Submitted via: CDex 1.50
#
DISCID=d50bbf0f
DTITLE=The Lavens - Sibling - Rivalry
DYEAR=2006
DGENRE=Country
TTITLE0=Butch Morgan's Introduction
TTITLE1=I Like Adventure
TTITLE2=Baby You Lead
TTITLE3=Faith
TTITLE4=High Speed Chase
TTITLE5=Peace Please
TTITLE6=Moving Out
TTITLE7=Different
TTITLE8=A Jam
TTITLE9=Train Song
TTITLE10=Jim's
TTITLE11=Fairies
TTITLE12=I'm A Treasure
TTITLE13=Cotton
TTITLE14=No War
EXTD=YEAR: 2006
EXTT0=
EXTT1=
EXTT2=
EXTT3=
EXTT4=
EXTT5=
EXTT6=
EXTT7=
EXTT8=
EXTT9=
EXTT10=
EXTT11=
EXTT12=
EXTT13=
EXTT14=
PLAYORDER=
